# xmcd
# 
# Track frame offsets:
#     150
#     19928
#     32489
#     46589
#     65184
#     78852
#     100845
#     114929
#     127737
#     145634
#     161293
#     182169
#     192400
#     204337
# 
# Disc length: 2882
# 
# Revision: 0
# Processed by: cddbd v1.5.2PL0 Copyright (c) Steve Scherf et al.
# Submitted via: fre:ac v1.0.27
# 
DISCID=aa0b400e
DTITLE=Kerry Pastine - A Closer Walk
DYEAR=2011
DGENRE=Country
TTITLE0=I Fall To Pieces
TTITLE1=Got A Lot Of Rhythm In My Soul
TTITLE2=Your Kind Of Love
TTITLE3=Tennesee Waltz
TTITLE4=Stop, Look and Listen
TTITLE5=Billy Bailey
TTITLE6=There He Goes
TTITLE7=Strange
TTITLE8=In Care of the Blues
TTITLE9=Why Can't He Be You
TTITLE10=Blue Moon of Kentucky
TTITLE11=Have You Ever Been Lonely
TTITLE12=Just A Closer Walk With Thee
TTITLE13=Sweet Dreams of You
EXTD=Performed Live at the Soiled Dove in Denver on Sept 10, 2011
EXTT0=
EXTT1=
EXTT2=
EXTT3=
EXTT4=
EXTT5=
EXTT6=
EXTT7=
EXTT8=
EXTT9=
EXTT10=
EXTT11=
EXTT12=
EXTT13=
PLAYORDER=
